<?xml version="1.0" encoding="utf-8"?>
<!-- Generator: Adobe Illustrator 22.0.0, SVG Export Plug-In . SVG Version: 6.00 Build 0)  -->
<svg version="1.1" id="Layer_1" xmlns="http://www.w3.org/2000/svg" xmlns:xlink="http://www.w3.org/1999/xlink" x="0px" y="0px"
	 viewBox="0 0 544.7 168.1" style="enable-background:new 0 0 544.7 168.1;" xml:space="preserve">
<style type="text/css">
	.st0{fill:#1D71B8;}
</style>
<g>
	<path class="st0" d="M318.8,0c8.2,0,16.5,0,24.7,0c-0.2,43,0.4,86.8-0.3,129.4c-8,0-16.1,0-24.1,0c-0.8-0.7,0.3-3.3-0.6-3.9
		c-17.3,10-43.5,7.5-51.9-8.4c-8.1-15.2-8.4-47.2-1.1-63.4c8.1-18.1,29.8-22.3,53.3-16.3C318.8,24.9,318.8,12.4,318.8,0z
		 M298.6,56.1c-10.6,1.3-13.2,14.6-13.2,26.9c0,8.3,0.7,19.5,6.2,23.9c7.1,5.7,17.2,1.2,27.2-0.3c0-16.2,0-32.4,0-48.5
		C312.5,57.2,305.2,55.3,298.6,56.1z"/>
	<path class="st0" d="M116.8,129.9c0,12.7,0,25.4,0,38.2c-8.2,0-16.5,0-24.7,0c0-43.7,0-87.4,0-131c8,0,15.9,0,23.9,0
		c1.2,0.5,0.2,3.3,0.6,4.8c6.1-2.8,11.1-6.3,18.8-7c33.9-3,40.4,27.1,38.4,58.4c-0.9,14.8-5.2,26.8-15.7,32.8
		C148.1,131.7,132.8,132.8,116.8,129.9z M143.5,106.1c7-6.9,8-32,2-42.4c-1.3-2.3-3.9-4.7-5.9-5.6c-7.9-3.7-16.8,0.4-22.7,2.5
		c0,16.2,0,32.4,0,48.5C126.9,110,137.4,112.1,143.5,106.1z"/>
	<path class="st0" d="M71.3,39.6c0.1,7.1-0.2,13.7-0.3,20.5c-8.4-1.2-16.8-2.2-25.8-2.8c-8.2-0.6-21.3-1.5-20.8,7
		c0.3,4.5,5.8,5.6,9.5,6.5c12.9,2.9,28.6,3.9,35.4,12.6c7.4,9.5,5.6,30.3-2,38.4c-13.3,14.3-44.6,9.6-65.9,5.3
		c0.5-6.6,0.5-13.7,0.8-20.5c8.8,0.9,17,1.9,26.1,2.5c8.2,0.6,21.3,1.2,21.3-6.7c0-7.8-14.9-8.2-22.2-9.5C17.9,91.1,8.2,88,4,81.7
		c-3.4-5-4.2-13.7-3.9-19.1C1,45.9,13.6,36.3,30.6,35.1C45.3,34,57.8,37.5,71.3,39.6z"/>
	<path class="st0" d="M213,37.6c7.2-0.8,13.5,0.5,17.4,2.8c8.4,5,16.3,20.1,10.7,34.5c-3.2,8.1-11.8,15.7-23.9,15.7
		c-11.9,0-21.5-7.7-24.7-16.8c-2.3-6.6-2.2-15.9,1.1-22.7C196.3,45.8,203.3,38.7,213,37.6z"/>
	<path d="M496.8,81.4c0,3.7,0,7.5,0,11.2c-2.7-0.2-3.9-2.1-5.9-3.1c-5-2.4-20.5-5.3-20.5,2.5c0,4.9,8.2,4.9,12.6,5.9
		c4.8,1.1,10,2.9,12.6,5.6c4.6,4.8,3.6,14.3-0.8,18.8c-7.9,8-26.3,7.5-37.6,2.5c0-3.8,0-7.7,0-11.5c5.2,2.1,9.8,5.8,16.8,6.5
		c4.3,0.4,11.9,0,11.8-5.1c-0.1-5.1-7.6-5-12.9-6.2c-8.2-1.9-15.8-5.7-15.4-15.4C458.1,76.6,483.2,76.1,496.8,81.4z"/>
	<path d="M407.2,79.1c0,3.1,0,6.2,0,9.3c-5.1,0-10.1,0-15.2,0c0,13,0,26,0,39c-4.1,0-8.2,0-12.3,0c0-12.9,0-25.8,0-38.7
		c-4.5-0.7-10.2-0.1-15.2-0.3c0.2-3-0.4-6.7,0.3-9.3C379,79.1,393.1,79.1,407.2,79.1z"/>
	<path d="M449.6,79.1c0,3.1,0,6.2,0,9.3c-7.4,0-14.8,0-22.2,0c-0.7,2.2-0.1,5.7-0.3,8.4c6.9,0,13.8,0,20.8,0c0,3.1,0,6.2,0,9.3
		c-6.9,0-13.8,0-20.8,0c0,3.9,0,7.9,0,11.8c6.9,0.7,15.1,0.1,22.5,0.3c0,3.1,0,6.2,0,9.3c-11.6,0-23.2,0-34.8,0
		c0.2-16-0.4-32.7,0.3-48.3C426.6,79.1,438.1,79.1,449.6,79.1z"/>
	<path d="M544.7,79.1c0,3.1,0,6.2,0,9.3c-5.1,0-10.1,0-15.2,0c0,13,0,26,0,39c-4.1,0-8.2,0-12.3,0c0-12.9,0-25.8,0-38.7
		c-4.5-0.7-10.2-0.1-15.2-0.3c0.2-3-0.4-6.7,0.3-9.3C516.5,79.1,530.6,79.1,544.7,79.1z"/>
	<path class="st0" d="M242.8,128.2c-17.4,0.1-34.5-0.1-51.6-0.3c0.6-14.9,9-25.3,23-26.4C231.9,100.2,242.1,111.3,242.8,128.2z"/>
</g>
</svg>
