<?xml version="1.0" encoding="utf-8"?>
<!-- Generator: Adobe Illustrator 15.0.0, SVG Export Plug-In . SVG Version: 6.00 Build 0)  -->
<!DOCTYPE svg PUBLIC "-//W3C//DTD SVG 1.1//EN" "http://www.w3.org/Graphics/SVG/1.1/DTD/svg11.dtd">
<svg version="1.1" id="Layer_1" xmlns="http://www.w3.org/2000/svg" xmlns:xlink="http://www.w3.org/1999/xlink" x="0px" y="0px"
	 width="595.28px" height="841.89px" viewBox="0 0 595.28 841.89" enable-background="new 0 0 595.28 841.89" xml:space="preserve">
<path fill-rule="evenodd" clip-rule="evenodd" fill="#1D71B8" d="M344.109,305.3c8.231,0,16.463,0,24.695,0
	c-0.187,43.029,0.374,86.806-0.281,129.367c-8.044,0-16.088,0-24.133,0c-0.83-0.668,0.268-3.261-0.562-3.93
	c-17.256,10.035-43.493,7.458-51.915-8.417c-8.067-15.21-8.372-47.17-1.122-63.421c8.064-18.077,29.8-22.267,53.317-16.276
	C344.109,330.182,344.109,317.741,344.109,305.3z M323.905,361.425c-10.568,1.306-13.22,14.568-13.188,26.94
	c0.021,8.304,0.74,19.457,6.174,23.853c7.084,5.73,17.186,1.183,27.219-0.281c0-16.182,0-32.365,0-48.547
	C337.735,362.454,330.479,360.612,323.905,361.425z"/>
<path fill-rule="evenodd" clip-rule="evenodd" fill="#1D71B8" d="M142.063,435.229c0,12.721,0,25.442,0,38.163
	c-8.232,0-16.463,0-24.695,0c0-43.684,0-87.364,0-131.049c7.951,0,15.901,0,23.853,0c1.246,0.532,0.233,3.321,0.562,4.771
	c6.133-2.766,11.134-6.34,18.801-7.016c33.918-2.984,40.422,27.107,38.445,58.371c-0.935,14.772-5.24,26.828-15.715,32.832
	C173.415,436.972,158.062,438.085,142.063,435.229z M168.722,411.374c7.015-6.912,7.983-31.959,1.964-42.372
	c-1.312-2.271-3.947-4.7-5.893-5.613c-7.899-3.703-16.83,0.389-22.73,2.526c0,16.183,0,32.364,0,48.547
	C152.138,415.27,162.637,417.372,168.722,411.374z"/>
<path fill-rule="evenodd" clip-rule="evenodd" fill="#1D71B8" d="M96.602,344.868c0.149,7.072-0.169,13.675-0.281,20.485
	c-8.352-1.23-16.821-2.166-25.817-2.806c-8.189-0.584-21.292-1.509-20.766,7.015c0.28,4.527,5.808,5.608,9.541,6.455
	c12.905,2.926,28.556,3.917,35.358,12.628c7.438,9.524,5.614,30.331-1.964,38.445c-13.344,14.286-44.639,9.592-65.946,5.331
	c0.514-6.596,0.513-13.705,0.842-20.485c8.791,0.922,16.958,1.884,26.098,2.525c8.194,0.574,21.32,1.201,21.328-6.734
	c0.006-7.751-14.909-8.22-22.169-9.541c-9.683-1.764-19.374-4.91-23.572-11.226c-3.357-5.049-4.227-13.687-3.929-19.082
	c0.922-16.647,13.54-26.247,30.588-27.501C70.564,339.3,83.03,342.83,96.602,344.868z"/>
<path fill-rule="evenodd" clip-rule="evenodd" fill="#1D71B8" d="M238.315,342.904c7.174-0.826,13.513,0.471,17.398,2.806
	c8.384,5.038,16.314,20.088,10.664,34.516c-3.159,8.066-11.757,15.715-23.853,15.715c-11.884,0-21.496-7.686-24.694-16.836
	c-2.293-6.56-2.211-15.949,1.122-22.73C221.526,351.139,228.587,344.024,238.315,342.904z"/>
<path fill-rule="evenodd" clip-rule="evenodd" d="M522.023,386.681c0,3.741,0,7.483,0,11.225c-2.687-0.19-3.918-2.145-5.894-3.087
	c-4.966-2.368-20.484-5.259-20.484,2.525c0,4.921,8.229,4.852,12.627,5.895c4.764,1.127,10.033,2.913,12.629,5.612
	c4.604,4.785,3.646,14.275-0.842,18.801c-7.913,7.977-26.256,7.491-37.604,2.524c0-3.835,0-7.669,0-11.505
	c5.194,2.055,9.755,5.837,16.838,6.455c4.285,0.374,11.867,0.003,11.785-5.052c-0.082-5.108-7.636-4.977-12.908-6.174
	c-8.202-1.862-15.785-5.717-15.435-15.433C483.333,381.938,508.508,381.389,522.023,386.681z"/>
<path fill-rule="evenodd" clip-rule="evenodd" d="M432.505,384.436c0,3.087,0,6.174,0,9.26c-5.051,0-10.103,0-15.153,0
	c0,13.001,0,26.004,0,39.007c-4.116,0-8.231,0-12.347,0c0-12.91,0-25.817,0-38.726c-4.491-0.654-10.195-0.094-15.154-0.281
	c0.186-2.995-0.372-6.734,0.281-9.26C404.257,384.436,418.381,384.436,432.505,384.436z"/>
<path fill-rule="evenodd" clip-rule="evenodd" d="M474.88,384.436c0,3.087,0,6.174,0,9.26c-7.391,0-14.78,0-22.169,0
	c-0.654,2.247-0.096,5.704-0.281,8.419c6.922,0,13.844,0,20.767,0c0,3.087,0,6.173,0,9.259c-6.923,0-13.845,0-20.767,0
	c0,3.93,0,7.858,0,11.788c6.922,0.653,15.06,0.093,22.45,0.279c0,3.088,0,6.174,0,9.262c-11.6,0-23.198,0-34.798,0
	c0.188-15.996-0.374-32.74,0.28-48.267C451.868,384.436,463.374,384.436,474.88,384.436z"/>
<path fill-rule="evenodd" clip-rule="evenodd" d="M570.01,384.436c0,3.087,0,6.174,0,9.26c-5.052,0-10.103,0-15.153,0
	c0,13.001,0,26.004,0,39.007c-4.116,0-8.232,0-12.348,0c0-12.91,0-25.817,0-38.726c-4.49-0.654-10.195-0.094-15.153-0.281
	c0.186-2.995-0.372-6.734,0.28-9.26C541.761,384.436,555.885,384.436,570.01,384.436z"/>
<path fill-rule="evenodd" clip-rule="evenodd" fill="#1D71B8" d="M268.062,433.545c-17.406,0.1-34.537-0.074-51.635-0.28
	c0.604-14.911,8.977-25.287,23.011-26.379C257.145,405.508,267.343,416.614,268.062,433.545z"/>
</svg>
